<svg xmlns="http://www.w3.org/2000/svg" viewBox="0 0 500 500" width="500" height="500">
  <!-- Background -->
  <rect width="500" height="500" fill="#f8f9fa" />
  
  <!-- E-Commerce Website Illustration -->
  <g transform="translate(50, 50)">
    <!-- Browser Window -->
    <rect x="0" y="0" width="400" height="300" rx="10" ry="10" fill="white" stroke="#dee2e6" stroke-width="2" />
    
    <!-- Browser Header -->
    <rect x="0" y="0" width="400" height="40" rx="10" ry="10" fill="#f1f3f5" />
    <circle cx="20" cy="20" r="5" fill="#fa5252" />
    <circle cx="40" cy="20" r="5" fill="#fd7e14" />
    <circle cx="60" cy="20" r="5" fill="#40c057" />
    <rect x="80" y="15" width="250" height="10" rx="5" ry="5" fill="#dee2e6" />
    
    <!-- E-Commerce Content -->
    <!-- Header -->
    <rect x="20" y="60" width="360" height="40" rx="5" ry="5" fill="#4a63e7" />
    <rect x="40" y="70" width="100" height="20" rx="5" ry="5" fill="white" opacity="0.8" />
    <rect x="240" y="70" width="30" height="20" rx="5" ry="5" fill="white" opacity="0.6" />
    <rect x="280" y="70" width="30" height="20" rx="5" ry="5" fill="white" opacity="0.6" />
    <rect x="320" y="70" width="30" height="20" rx="5" ry="5" fill="white" opacity="0.6" />
    
    <!-- Hero Section -->
    <rect x="20" y="110" width="360" height="80" rx="5" ry="5" fill="#e9ecef" />
    <rect x="40" y="130" width="150" height="15" rx="2" ry="2" fill="#495057" />
    <rect x="40" y="155" width="100" height="10" rx="2" ry="2" fill="#6c757d" />
    <rect x="40" y="170" width="80" height="10" rx="5" ry="5" fill="#4a63e7" />
    
    <!-- Product Grid -->
    <rect x="20" y="200" width="115" height="90" rx="5" ry="5" fill="white" stroke="#dee2e6" stroke-width="1" />
    <rect x="30" y="210" width="95" height="50" rx="2" ry="2" fill="#e9ecef" />
    <rect x="30" y="270" width="60" height="10" rx="2" ry="2" fill="#212529" />
    <rect x="95" y="270" width="20" height="10" rx="2" ry="2" fill="#4a63e7" />
    
    <rect x="142.5" y="200" width="115" height="90" rx="5" ry="5" fill="white" stroke="#dee2e6" stroke-width="1" />
    <rect x="152.5" y="210" width="95" height="50" rx="2" ry="2" fill="#e9ecef" />
    <rect x="152.5" y="270" width="60" height="10" rx="2" ry="2" fill="#212529" />
    <rect x="217.5" y="270" width="20" height="10" rx="2" ry="2" fill="#4a63e7" />
    
    <rect x="265" y="200" width="115" height="90" rx="5" ry="5" fill="white" stroke="#dee2e6" stroke-width="1" />
    <rect x="275" y="210" width="95" height="50" rx="2" ry="2" fill="#e9ecef" />
    <rect x="275" y="270" width="60" height="10" rx="2" ry="2" fill="#212529" />
    <rect x="340" y="270" width="20" height="10" rx="2" ry="2" fill="#4a63e7" />
  </g>
  
  <!-- Shopping Cart Icon -->
  <g transform="translate(400, 100) scale(0.8)">
    <circle cx="50" cy="50" r="40" fill="#4a63e7" opacity="0.1" />
    <path d="M30,30 L40,50 L70,50 L80,30 Z" fill="none" stroke="#4a63e7" stroke-width="3" />
    <circle cx="45" cy="60" r="5" fill="none" stroke="#4a63e7" stroke-width="2" />
    <circle cx="65" cy="60" r="5" fill="none" stroke="#4a63e7" stroke-width="2" />
    <line x1="30" y1="30" x2="25" y2="20" stroke="#4a63e7" stroke-width="2" />
  </g>
  
  <!-- Credit Card Icon -->
  <g transform="translate(400, 200) scale(0.8)">
    <circle cx="50" cy="50" r="40" fill="#4a63e7" opacity="0.1" />
    <rect x="30" y="40" width="40" height="25" rx="3" ry="3" fill="none" stroke="#4a63e7" stroke-width="2" />
    <line x1="30" y1="50" x2="70" y2="50" stroke="#4a63e7" stroke-width="2" />
    <rect x="35" y="55" width="10" height="5" fill="#4a63e7" />
  </g>
  
  <!-- Delivery Icon -->
  <g transform="translate(400, 300) scale(0.8)">
    <circle cx="50" cy="50" r="40" fill="#4a63e7" opacity="0.1" />
    <rect x="25" y="40" width="30" height="20" rx="2" ry="2" fill="none" stroke="#4a63e7" stroke-width="2" />
    <rect x="55" y="45" width="20" height="15" rx="2" ry="2" fill="none" stroke="#4a63e7" stroke-width="2" />
    <circle cx="35" cy="65" r="5" fill="none" stroke="#4a63e7" stroke-width="2" />
    <circle cx="65" cy="65" r="5" fill="none" stroke="#4a63e7" stroke-width="2" />
  </g>
  
  <!-- Tech Stack Labels -->
  <g transform="translate(50, 380)">
    <rect x="0" y="0" width="80" height="25" rx="12.5" ry="12.5" fill="#4a63e7" opacity="0.8" />
    <text x="40" y="16" font-family="Arial" font-size="12" fill="white" text-anchor="middle">React</text>
  </g>
  
  <g transform="translate(140, 380)">
    <rect x="0" y="0" width="80" height="25" rx="12.5" ry="12.5" fill="#4a63e7" opacity="0.8" />
    <text x="40" y="16" font-family="Arial" font-size="12" fill="white" text-anchor="middle">Node.js</text>
  </g>
  
  <g transform="translate(230, 380)">
    <rect x="0" y="0" width="80" height="25" rx="12.5" ry="12.5" fill="#4a63e7" opacity="0.8" />
    <text x="40" y="16" font-family="Arial" font-size="12" fill="white" text-anchor="middle">MongoDB</text>
  </g>
  
  <g transform="translate(320, 380)">
    <rect x="0" y="0" width="80" height="25" rx="12.5" ry="12.5" fill="#4a63e7" opacity="0.8" />
    <text x="40" y="16" font-family="Arial" font-size="12" fill="white" text-anchor="middle">Stripe</text>
  </g>
  
  <!-- Project Title -->
  <g transform="translate(250, 440)">
    <text x="0" y="0" font-family="Arial" font-size="24" font-weight="bold" fill="#212529" text-anchor="middle">E-Commerce Website</text>
  </g>
</svg>